# xmcd CD database file
#
# Track frame offsets:
#	150
#	11343
#	30657
#	43567
#	60398
#	77477
#	91022
#	106656
#	119986
#	137146
#	150162
#	167145
#	185727
#	201640
#
# Disc length: 2895 seconds
#
# Revision: 0
# Processed by: cddbd v1.5.2PL0 Copyright (c) Steve Scherf et al.
# Submitted via: CDex 1.79
#
DISCID=ae0b4d0e
DTITLE=Pat McKenna - Better Times I Can't Remember
DYEAR=2016
DGENRE=Country
TTITLE0=You Sure Make Blue Jeans Look Good
TTITLE1=In My Father's House
TTITLE2=The Land That I Love
TTITLE3=If I Should Fall Behind
TTITLE4=Trust Love and Honour
TTITLE5=Better Times I Can't Remember
TTITLE6=Back To Formentera
TTITLE7=Wild Wood Flower
TTITLE8=Colours From Above
TTITLE9=Beautiful Wife
TTITLE10=May You Never Be Alone Like Me
TTITLE11=Gem of The Roe
TTITLE12=Raglan Road
TTITLE13=Wish I Had Someone To Love Me
EXTD=YEAR: 2016
EXTT0=
EXTT1=
EXTT2=
EXTT3=
EXTT4=
EXTT5=
EXTT6=
EXTT7=
EXTT8=
EXTT9=
EXTT10=
EXTT11=
EXTT12=
EXTT13=
PLAYORDER=
